<svg xmlns="http://www.w3.org/2000/svg" viewBox="0 0 1000 1000"><defs><clipPath id="a"><path d="M141 471.9h460V940H141z" style="fill:none"/></clipPath><style>.b{fill:none;stroke:var(--color-text, #000);stroke-linecap:square;stroke-miterlimit:2;stroke-width:68px}</style></defs><path d="m541 266.59-1 255.76H140l1-258.1" class="b"/><path d="M60 290.06V100h880v190.06" class="b"/><path d="M219 427.32C307 365 394 279 461 195" class="b"/><path d="M461 427.32C380 343 300 260 221 195M479 317.04l24 23.46M347 441.4l24 23.46M189 293.58l26 21.11M329.92 159.95l24 23.46M141 615v169c0 61-6 112.63 182 112.63 176 0 202-23.46 218-91.51" class="b"/><path d="M479 662c-106 44.58-239.5 77.83-338 82.12" class="b" style="clip-path:url(#a)"/><path d="M640 360c100-49 159-139 159-139M640 620c132-67.3 230-180 230-180M940 660S809.84 808.07 640 880" class="b"/></svg>