<svg xmlns="http://www.w3.org/2000/svg" viewBox="0 0 1000 1000"><defs><clipPath id="a"><path d="M100 79h800v341H100z" class="a"/></clipPath><clipPath id="b"><path d="M260 420h480v460H260z" class="a"/></clipPath><clipPath id="c"><path d="M260 740h480v275H260z" class="a"/></clipPath><style>.a,.b{fill:none}.b{stroke:var(--color-text, #000);stroke-linecap:square;stroke-miterlimit:2;stroke-width:68px}</style></defs><path d="M260 940V740M740 940V740M260 420h480M240 620h520M260 140c280-16 480-80 480-80" class="b"/><g style="clip-path:url(#a)"><path d="M620 420c80-135 120-240 120-240M523 340c-13-70-43-140-43-140M328 340c-18-52-43-111-43-111" class="b"/></g><path d="M500 880V420" class="b" style="clip-path:url(#b)"/><path d="M260 880h480" class="b" style="clip-path:url(#c)"/></svg>